PathFileType	4	(X/Y/Z)	Patient4_TMGait_0pt6_02_right_09.trc.trc
DataRate	CameraRate	NumFrames	NumMarkers	Units	OrigDataRate	OrigDataStartFrame	OrigNumFrames
78.212290502793	78.212290502793	4	33	mm	78.212290502793	36	       141
Frame#	Time	Sacral			L.Shoulder			Chest			R.Shoulder			Neck			R.ASIS			L.ASIS			R.Thigh.Superior			R.Thigh.Lateral			R.Thigh.Inferior			R.Patella			L.Thigh.Superior			L.Thigh.Lateral			L.Thigh.Inferior			L.Patella			L.Shank.Superior			L.Shank.Lateral			L.Shank.Inferior			R.Shank.Superior			R.Shank.Lateral			R.Shank.Inferior			R.Heel			R.Midfoot.Superior			R.Midfoot.Lateral			R.Toe			L.Heel			L.Midfoot.Lateral			L.Midfoot.Superior			L.Toe			L.Elbow			L.Wrist			R.Elbow			R.Wrist			
		X1	Y1	Z1	X2	Y2	Z2	X3	Y3	Z3	X4	Y4	Z4	X5	Y5	Z5	X6	Y6	Z6	X7	Y7	Z7	X8	Y8	Z8	X9	Y9	Z9	X10	Y10	Z10	X11	Y11	Z11	X12	Y12	Z12	X13	Y13	Z13	X14	Y14	Z14	X15	Y15	Z15	X16	Y16	Z16	X17	Y17	Z17	X18	Y18	Z18	X19	Y19	Z19	X20	Y20	Z20	X21	Y21	Z21	X22	Y22	Z22	X23	Y23	Z23	X24	Y24	Z24	X25	Y25	Z25	X26	Y26	Z26	X27	Y27	Z27	X28	Y28	Z28	X29	Y29	Z29	X30	Y30	Z30	X31	Y31	Z31	X32	Y32	Z32	X33	Y33	Z33	

36	10.767500000000	794.920357980338	1001.643178791786	462.118851905758	961.454446289459	1435.075412573357	285.264345889942	1064.515848212341	1368.881833965693	446.810097377928	974.230829443038	1437.464033117939	618.400478133768	938.583656350763	1492.222835824962	438.097691649513	1020.715926597127	939.587692553320	584.525281458137	1013.379717875371	960.620479810986	310.713868561428	1081.093577521821	747.955495036293	554.882496506046	1007.807783662714	631.603868556261	609.143140251867	1094.159934047362	588.377637727141	531.956331967074	1103.708189799801	498.918183934648	536.981172748289	1046.452275364393	737.159951507577	331.253058532875	955.305993522231	626.307357170602	263.701193197886	1038.558552157848	538.069836459815	319.988169619250	1027.378537226305	452.709985234689	315.967141149913	957.049337766585	396.997805137054	311.881709086664	815.718436258150	356.301065564705	264.115775582767	798.982786433269	229.782498509341	323.267946557744	1080.048609582843	408.469070533241	540.153029532961	1012.293220050090	298.708062276465	595.438898893267	1063.139854414144	208.380875620837	531.711118736854	940.448905578096	40.860741608813	491.492100641477	1109.763906930705	97.480704553441	532.058700590751	1021.222236202313	36.918945531990	569.230030421640	1229.450752995533	45.934546308469	564.341569282120	606.465605648624	166.802057972018	361.617919080179	664.910881350291	117.499110358938	285.183174307614	768.700092190993	128.264447094864	307.018618038603	847.978268113898	31.305774572621	288.166051785010	947.142305227628	1081.678856198263	167.527450059446	1175.920289865149	962.361208842694	177.297763430917	888.669967789018	1099.980590968328	732.538593952343	932.917036902513	842.552284296107	741.371582840720	
37	10.780285714286	794.637454750439	1002.520108064909	466.057966241738	959.923981505210	1436.180815065404	288.258860628787	1064.440789413457	1369.696269121329	448.792583342505	975.789417661565	1438.021169366435	621.270402983069	938.458318641290	1492.973630219110	441.484898316821	1020.925898860965	940.375432942945	586.658090699390	1011.831005704545	961.337570792117	313.137712845610	1078.657195851512	746.961476713878	558.215795408731	1003.483638275899	631.674984782855	611.676921394493	1089.277934493238	587.540989622516	534.349250616119	1097.471819116682	498.311344698446	538.943603293182	1050.983258076592	740.484999637800	333.542363967885	964.410299698293	627.306108752594	265.149130302109	1050.710401166939	541.120200959644	321.183302462505	1040.982332547341	454.591756678055	316.652924271506	969.032639874836	398.876665702647	312.734928079753	826.119852994404	362.886823711572	265.404190569865	805.761002696354	236.730608751368	324.103390905986	1073.654617660432	408.121332706515	541.904385075307	1005.535837903550	298.415090596864	596.814686374450	1056.100187829710	208.186818295215	532.636021810118	932.944314937236	40.854444923407	491.719472928101	1102.338984808466	97.438542246855	532.458012985759	1013.718689741594	36.845690558813	569.450065713475	1221.985942471095	45.711365529835	564.580979294228	611.325539774916	182.394965568322	362.884458579716	667.087807751293	130.361109809364	285.958662185929	771.741576192183	135.340565581313	307.520959225460	845.119947748708	31.523227101842	287.648746672070	945.066047898839	1082.309694950342	171.676556191811	1167.160933416160	949.643983327257	180.645592008757	897.447447073362	1098.592113543051	737.001680878818	953.826095826238	843.318677501487	743.115293812896	
38	10.793071428571	794.205881671481	1003.321319157954	469.903081736007	958.158831033988	1437.128828718256	291.122883917807	1064.238162057372	1370.335352967949	450.565876881485	977.381492930278	1438.407446898034	624.021189183654	938.304514748894	1493.605448188896	444.789793624260	1020.905103722730	941.023100142184	588.617485660742	1009.973661945665	961.868948585732	315.396859423657	1076.006236040762	745.970377274617	561.316676589135	999.045805973926	631.701446269737	614.070474126090	1084.222018546434	586.705115657293	536.558563153224	1091.074548137922	497.730169030525	540.750892508871	1055.174561447914	744.085843382450	335.865952185822	973.231495086361	628.783198733084	266.523990229824	1062.388801526986	544.805172094182	322.448652375753	1054.326743053573	457.205928338975	317.486284400314	981.099091444220	401.291262366313	313.644973707012	836.909896999741	369.361627189477	266.732213629658	813.450020054743	243.583654860530	325.074358777538	1067.144025657746	407.779278901807	543.515922420648	998.689454337565	298.127683109713	598.078324109314	1049.000310328911	208.002721686140	533.492165041121	925.390028382474	40.863154993173	491.934577162791	1094.878116894124	97.358647622021	532.798684948331	1006.165555254313	36.778336172962	569.653954239291	1214.472454591757	45.442043755151	564.795737481665	617.669740469845	196.576265054195	364.424751668073	671.003495634786	142.553114706331	286.865270707704	776.249529781613	142.558350851856	308.100513673650	844.455403943033	32.479828085241	286.875589396255	942.837249501302	1082.721250634378	175.742895359970	1157.164292045197	936.649029654033	183.788267593561	906.668800464607	1097.203656010435	741.396353536780	975.204496249149	844.717677435541	744.738285048892	
39	10.805857142857	793.624788889016	1004.082130076305	473.622104257015	956.238681973260	1437.943032517209	293.848351423011	1063.916728285752	1370.829491894208	452.161604768062	978.962649332240	1438.688822404445	626.635921952596	938.126146525910	1494.162345782453	447.973120898102	1020.657281363202	941.569502115060	590.449722296752	1007.848764850711	962.271924090425	317.512017282692	1073.203084964406	745.045220376784	564.107979294466	994.576026709530	631.723024071950	616.290018418493	1079.065839835879	585.903967973549	538.554559355252	1084.602370824079	497.195691553800	542.372106102423	1058.942215625459	747.971741598681	338.231095129890	981.615883761281	630.773116932499	267.833268873949	1073.446212036977	549.129149848813	323.738892584950	1067.266234070613	460.567042630410	318.362743550084	993.126012698268	404.239354388490	314.535737775313	847.941386987263	375.549104620944	268.064690593731	822.084240020342	250.078706259124	326.106884531130	1060.580380430209	407.461906193839	544.962297946962	991.802700495217	297.880159046396	599.222241819305	1041.862577417338	207.843756168534	534.267813625205	917.778320132667	40.894274387563	492.144602810204	1087.370069321137	97.254925633082	533.081745245774	998.558468496283	36.723931552363	569.843263524350	1206.904400714435	45.150166163405	564.984535819553	625.477847870736	208.700068192256	366.172517198468	676.775498173084	153.473912413430	287.857705254624	782.398286804770	149.553478098818	308.692267646820	846.441816868285	34.211713260585	285.853995240061	940.372707358413	1082.948618505666	179.757049154393	1145.828570916278	923.593128024771	186.707343874174	916.350647628130	1095.871527413561	745.629785559000	996.968584177259	846.824781251900	746.171027638721	
